<svg width="75" height="65" viewBox="0 0 75 65" fill="none" xmlns="http://www.w3.org/2000/svg">
<path fill-rule="evenodd" clip-rule="evenodd" d="M1.84677 21.2327L37.6987 1.17801L73.5506 21.2327L37.6987 41.2874L1.84677 21.2327Z" fill="#769D85"/>
<path fill-rule="evenodd" clip-rule="evenodd" d="M38.8889 63.9664V43.7665L75 23.5668V43.7667L38.8889 63.9664Z" fill="#769D85"/>
<path fill-rule="evenodd" clip-rule="evenodd" d="M36.1111 64.1876V43.9877L-5.48142e-06 23.788V43.9879L36.1111 64.1876Z" fill="#769D85"/>
<path fill-rule="evenodd" clip-rule="evenodd" d="M27.9555 20.064C27.9555 16.9378 23.425 14.4036 17.8365 14.4036C12.2479 14.4036 7.71749 16.9378 7.71749 20.064C7.71749 23.1901 12.2479 25.7244 17.8365 25.7244C23.425 25.7244 27.9555 23.1901 27.9555 20.064Z" fill="#413C58"/>
<path fill-rule="evenodd" clip-rule="evenodd" d="M27.9555 15.9985C27.9555 12.8723 23.425 10.338 17.8365 10.338C12.2479 10.338 7.71749 12.8723 7.71749 15.9985C7.71749 19.1246 12.2479 21.6589 17.8365 21.6589C23.425 21.6589 27.9555 19.1246 27.9555 15.9985Z" fill="#769D85"/>
<path fill-rule="evenodd" clip-rule="evenodd" d="M46.8244 29.9259C46.8244 28.4246 45.7583 26.9849 43.8607 25.9233C41.963 24.8618 39.3892 24.2654 36.7054 24.2654C34.0217 24.2654 31.4479 24.8618 29.5502 25.9233C27.6526 26.9849 26.5865 28.4246 26.5865 29.9259C26.5865 31.4271 27.6526 32.8668 29.5502 33.9284C31.4479 34.9899 34.0217 35.5863 36.7054 35.5863C39.3892 35.5863 41.963 34.9899 43.8607 33.9284C45.7583 32.8668 46.8244 31.4271 46.8244 29.9259V29.9259Z" fill="#413C58"/>
<path fill-rule="evenodd" clip-rule="evenodd" d="M46.8244 25.8603C46.8244 24.359 45.7583 22.9193 43.8607 21.8578C41.963 20.7962 39.3892 20.1999 36.7054 20.1999C34.0217 20.1999 31.4479 20.7962 29.5502 21.8578C27.6526 22.9193 26.5865 24.359 26.5865 25.8603C26.5865 27.3615 27.6526 28.8013 29.5502 29.8628C31.4479 30.9243 34.0217 31.5207 36.7054 31.5207C39.3892 31.5207 41.963 30.9243 43.8607 29.8628C45.7583 28.8013 46.8244 27.3615 46.8244 25.8603V25.8603Z" fill="#769D85"/>
<path fill-rule="evenodd" clip-rule="evenodd" d="M66.2688 20.064C66.2688 16.9378 61.7384 14.4036 56.1498 14.4036C50.5612 14.4036 46.0308 16.9378 46.0308 20.064C46.0308 23.1901 50.5612 25.7244 56.1498 25.7244C61.7384 25.7244 66.2688 23.1901 66.2688 20.064Z" fill="#413C58"/>
<path fill-rule="evenodd" clip-rule="evenodd" d="M66.2688 15.9985C66.2688 12.8723 61.7384 10.338 56.1498 10.338C50.5612 10.338 46.0308 12.8723 46.0308 15.9985C46.0308 19.1246 50.5612 21.6589 56.1498 21.6589C61.7384 21.6589 66.2688 19.1246 66.2688 15.9985Z" fill="#769D85"/>
<path fill-rule="evenodd" clip-rule="evenodd" d="M46.8244 9.72593C46.8244 8.2247 45.7583 6.78495 43.8607 5.72341C41.963 4.66188 39.3892 4.06552 36.7054 4.06552C34.0217 4.06552 31.4479 4.66188 29.5502 5.72341C27.6526 6.78495 26.5865 8.2247 26.5865 9.72593C26.5865 11.2272 27.6526 12.6669 29.5502 13.7285C31.4479 14.79 34.0217 15.3864 36.7054 15.3864C39.3892 15.3864 41.963 14.79 43.8607 13.7285C45.7583 12.6669 46.8244 11.2272 46.8244 9.72593V9.72593Z" fill="#413C58"/>
<path fill-rule="evenodd" clip-rule="evenodd" d="M46.8244 5.66044C46.8244 4.15921 45.7583 2.71946 43.8607 1.65792C41.963 0.596389 39.3892 2.74818e-05 36.7054 2.74818e-05C34.0217 2.74818e-05 31.4479 0.596389 29.5502 1.65792C27.6526 2.71946 26.5865 4.15921 26.5865 5.66044C26.5865 7.16168 27.6526 8.60143 29.5502 9.66297C31.4479 10.7245 34.0217 11.3209 36.7054 11.3209C39.3892 11.3209 41.963 10.7245 43.8607 9.66297C45.7583 8.60143 46.8244 7.16168 46.8244 5.66044V5.66044Z" fill="#769D85"/>
</svg>
